# xmcd CD database file
#
# Track frame offsets:
#	150
#	23150
#	54315
#	89840
#	112602
#	139165
#	169432
#
# Disc length: 2610 seconds
#
# Revision: 0
# Processed by: cddbd v1.4PL0 Copyright (c) Steve Scherf et al.
# Submitted via: Feurio! 1.65 - http://www.feurio.com
#
DISCID=580a3007
DTITLE=Ron Hacker and The Hacksaws - Barstool Blues
DYEAR=1990
DGENRE=blues
TTITLE0=Shake Your Moneymaker
TTITLE1=If You Love Me (Like You Say)
TTITLE2=Kind-Hearted Woman
TTITLE3=Don't Mess With My Man
TTITLE4=Almost Grown
TTITLE5=Hacksaw Man
TTITLE6=Going To Brownsville
EXTD=
EXTT0=
EXTT1=
EXTT2=
EXTT3=
EXTT4=
EXTT5=
EXTT6=
PLAYORDER=
